<svg xmlns="http://www.w3.org/2000/svg" viewBox="0 0 2522.4 1230.4"><g id="katman_2" data-name="katman 2"><g id="katman_1-2" data-name="katman 1"><path d="M0,891.5c8-8,16-16,25.2-24l24-20.6,48.1-37.8c26.3-20.5,53.8-40,81.2-59.5,30.9-21.7,61.8-42.3,91.6-62.9,2.2-1.2,3.4-4.6,2.2-8-3.4-19.5-6.8-38.9-9.1-59.5-2.2-13.8-3.4-27.5-2.2-42.4a360.8,360.8,0,0,1,24-120.2c12.5-33.2,28.6-62.9,50.4-90.4,11.4-14.9,24-29.7,36.6-43.5a265.9,265.9,0,0,1,53.8-41.2,327.7,327.7,0,0,1,82.4-35.4c18.4-4.6,36.7-9.2,56.1-11.5h1.2c62.9-6.9,127,3.4,185.4,28.6,5.7,2.3,11.4,4.6,18.3,8,20.6,9.2,40.1,22.9,57.2,37.8,13.8,12.6,28.7,25.2,42.4,40.1,29.8,32,52.6,68.6,69.8,109.9a466.3,466.3,0,0,1,25.2,88.1c3.4,17.2,2.2,35.5,3.4,52.6a310.2,310.2,0,0,1-16,107.6c-12.6,37.7-28.6,75.6-53.8,107.5-13.7,17.2-29.8,33.3-45.8,50.4l73.3,76.7c0,1.2,0,0-1.2,1.2C892.8,923.6,863,903,831,882.4c-9.2,6.8-20.6,13.7-32.1,20.6-21.7,13.7-44.6,24-69.8,29.8-3.4,1.1-5.7,2.2-5.7,6.8-3.4,21.8-6.9,42.4-10.3,64.1-3.4,17.2-5.7,35.5-9.1,52.7s-4.6,35.5-8,52.6c0,3.4-2.3,6.9-3.5,10.3-2.2-2.3-5.7-4.6-6.8-8-3.5-10.3-6.9-21.8-8.1-32.1-2.2-14.9-3.4-30.9-2.2-46.9,0-28.6,4.6-56.1,12.5-83.6,1.2-2.2,1.2-4.5,2.3-8-45.8,6.9-91.6-2.2-137.3-4.6,4.6-1.1,8-1.1,12.5-2.2,19.4-1.2,40.1-1.2,59.5-4.6s33.2-5.7,53.8-9.2c14.9-2.2,29.8-14.9,34.4-29.8,2.2-6.8,6.8-13.7,10.2-19.4s5.7-6.8,10.3-5.7a313.8,313.8,0,0,1-4.6,32.1c25.2-12.6,48.1-25.2,67.6-43.5-4.6-3.5-9.1-6.9-13.7-9.2-27.5-19.4-56.1-38.9-83.6-58.3s-52.6-40.1-79-60.7c-17.1-12.5-34.3-22.8-51.5-35.5-12.5-9.1-24-18.3-37.7-26.3S503.6,642,487.6,642c-30.9,0-112.2,37.8-124.8,44.6-20.6,11.5-41.2,21.8-61.8,33.3a356.9,356.9,0,0,0,58.4,103c-28.6-27.5-50.4-60.7-67.6-97.3-10.3,6.9-21.7,12.6-32,18.3-20.6,12.6-41.2,24.1-63,36.7-27.4,16-53.8,32-81.2,48-20.6,12.6-41.2,25.2-63,36.7-16,9.1-32,18.3-46.9,27.4C1.1,892.7,1.1,892.7,0,891.5Zm819.4-61.8c9.2-10.3,18.4-20.6,26.4-30.9a313.8,313.8,0,0,0,44.6-86.9c9.1-26.4,16-53.8,16-81.3V600.8c0-10.3-1.2-21.7-2.3-32-4.6-30.9-13.7-59.5-28.6-87-10.3-19.4-22.8-36.6-34.3-54.9-8-12.6-18.3-24-28.6-34.3s-21.8-18.3-32.1-27.5c-33.2-26.3-68.6-46.9-108.7-58.3-22.9-6.9-45.8-12.6-69.8-12.6-11.5,0-22.9,0-34.3,1.2a228.4,228.4,0,0,0-38.9,6.9c-18.4,5.7-36.7,13.7-54.9,20.6-9.2,3.4-18.4,5.7-25.2,11.4-16,11.5-33.2,24-47,36.7-16,14.9-30.9,29.8-43.5,46.9-21.7,27.3-40.1,57.1-53.8,89.1s-20.6,68.6-20.6,104.1c0,13.8,2.3,27.5,3.4,40.1,1.2,8,2.3,14.9,3.5,22.9l6.8-3.5c37.8-22.8,75.6-44.6,114.5-62.9l75.5-34.3c2.3-1.2,3.5-1.2,5.7,0a278.8,278.8,0,0,1,49.2,25.2c26.4,19.4,54.9,36.6,80.1,56s52.7,41.2,77.9,63c19.4,16,38.9,33.2,57.2,51.5,16,14.9,30.9,30.8,46.9,45.7C806.8,820.6,812.6,825.1,819.4,829.7Z" fill="#7ad2da"/><path d="M16,1213.1c5.7-4.6,10.3-10.3,17.2-13.7,25.1-16,51.4-30.9,77.8-45.8,12.5-6.8,26.3-11.4,40.1-16,17.1-6.8,33.2-12.5,50.3-19.4,1.2-1.2,3.5-3.4,3.5-4.6-1.2-14.9-2.3-30.9-3.5-45.8,0-5.7-1.1-12.5-1.1-18.3-1.2-16-1.2-30.9-2.3-46.9-1.2-22.9-3.4-45.8-4.6-68.7v-2.2c0-18.4-1.2-37.8-1.2-56.1,0-22.9-1.1-45.8-1.1-69.8v-8.1a71.4,71.4,0,0,0,8,9.2c18.3,30.9,32.1,64.1,40.1,99.6,8,32,9.1,64.1,6.9,97.2-1.2,24-6.9,47-12.6,69.8-3.4,13.8-12.6,25.2-19.4,37.8-1.2,2.2-2.3,3.4-4.6,6.8,81.2-28.6,162.5-38.9,246-36.6-3.4-22.9-5.7-44.6-9.1-66.4a77,77,0,0,1-1.2-16c-1.1-12.5-2.2-25.2-4.6-36.6-1.1-6.9-1.1-13.8-1.1-20.6h-95c-2.3,48-5.7,95-18.3,141.9-1.2-6.8-3.5-13.7-4.6-20.6-2.3-19.4-3.5-40.1-5.7-59.5-1.2-13.7-1.2-27.4-2.3-41.2-1.2-16-2.3-30.8-3.4-46.9v-8H473.8v32c0,9.1-2.3,19.4-2.3,28.6-1.1,13.8-3.4,27.5-4.6,41.2-1.1,9.2-2.2,17.2-2.2,26.4-1.2,14.9-3.5,30.9-4.6,45.8,157.9,4.6,300.9,54.9,428,148.8-9.2-3.5-18.3-8.1-28.6-10.3-16-4.6-30.9-8.1-47-11.5-25.2-5.7-49.2-12.6-74.4-18.3-22.8-5.7-45.8-10.3-68.6-13.8l-66.4-10.2a262.4,262.4,0,0,0-42.3-3.5l-59.6-3.4c-8,0-15.9-1.2-25.1-1.2-17.2,0-33.3-1.1-50.4-1.1s-37.8,0-56.1,1.1l-56.1,3.5c-26.3,2.2-52.6,5.7-79,9.1-24,3.4-46.9,6.8-70.9,11.4-13.8,2.3-27.5,8.1-42.4,11.5-21.7,5.7-43.5,11.5-64.1,16-2.3,0-3.4,1.2-5.7,2.3-12.5,8-16,8-30.9,6.8C17.2,1214.3,17.2,1214.3,16,1213.1Z" fill="#7ad2da"/><path d="M17.2,494.4c25.1-3.4,48-6.9,72.1-8,21.8-2.3,44.6-2.3,67.5-2.3,13.8,0,27.5,3.4,40.1,6.9,9.1,2.2,14.9,8,17.2,17.1a15.7,15.7,0,0,1-11.5,19.4c-6.9,1.2-13.7,3.5-20.6,3.5-10.3,0-20.6,0-30.9-1.2s-18.3-1.2-27.4-2.3c-14.9-2.2-29.8-5.7-44.6-9.1-20.6-5.7-40.1-13.7-60.7-20.6C18.3,496.7,18.3,496.7,17.2,494.4Z" fill="#7ad2da"/><path d="M231.2,127c18.3,11.5,35.4,22.9,53.8,34.4a340.7,340.7,0,0,1,70.9,57.2c6.9,6.9,12.6,16,17.2,25.2s0,19.4-8,24c-4.6,2.3-11.5,2.3-16,1.2-6.9-2.3-13.7-6.9-19.4-11.5-14.9-14.9-29.8-28.6-43.6-44.6-14.9-19.4-28.6-40.1-42.3-59.5-5.7-8-10.3-17.2-16-25.2C230,128.1,231.2,128.1,231.2,127Z" fill="#7ad2da"/><path d="M1128.4,859.5c-19.4-4.6-38.9-8-58.3-12.5-30.9-6.9-62.9-11.5-91.6-27.5-9.1-5.7-18.3-11.5-25.2-20.6s-2.2-14.9,1.2-21.7,8-6.9,13.7-6.9c14.9,0,27.5,5.7,41.2,10.3,35.5,13.7,67.6,35.5,97.3,58.3,8,5.7,16,12.6,24,18.4C1129.6,859.5,1129.6,859.5,1128.4,859.5Z" fill="#7ad2da"/><path d="M1055.2,190c-5.7,9.1-10.3,19.4-16,28.6-13.7,22.9-28.6,45.8-46.9,65.2-11.5,12.6-22.9,26.4-35.5,38.9-8.1,8.1-18.3,14.9-29.8,10.3-9.1-3.4-14.9-11.4-11.5-22.8s10.3-18.4,17.2-25.2c36.6-37.8,76.7-69.8,122.5-95Z" fill="#7ad2da"/><path d="M671.8,1.2c2.3,11.4,4.6,21.7,6.9,33.2,4.6,22.8,8,44.6,8,67.5,0,16,2.3,30.9,2.3,47,0,10.3-2.3,20.6-3.5,30.9-2.2,12.5-16,21.7-26.3,15.9-4.6-2.2-9.2-6.8-10.3-11.4a123.4,123.4,0,0,1-3.4-50.4c2.2-12.6,2.2-26.3,4.5-38.9,4.6-26.4,10.3-51.5,16-76.7,1.2-6.8,3.5-12.5,4.6-18.3A1.2,1.2,0,0,0,671.8,1.2Z" fill="#7ad2da"/><path d="M1194.8,496.7c-9.1,4.6-18.3,10.3-28.6,14.9-33.2,14.9-66.4,27.5-101.9,35.5-13.7,3.4-27.4,5.7-41.2,4.6-9.1,0-14.8-5.7-17.1-14.9-2.3-6.9,1.2-12.6,8-18.3,14.9-11.5,32.1-14.9,48.1-17.2,42.3-8,85.8-6.9,129.3-6.9h3.4Z" fill="#7ad2da"/><path d="M1475.2,710.7c-4.6,18.3-14.9,44.6-20.6,57.3-10.3,2.2-38.9,9.1-66.4,9.1-93.8,0-135.1-61.8-135.1-120.2,0-75.6,57.3-125.9,143.1-125.9,30.9,0,58.3,6.9,67.5,8.1,1.2,17.1,4.6,42.3,6.9,58.3l-13.7,2.3c-8.1-26.4-18.4-41.2-36.7-49.2-9.1-3.5-21.7-5.7-33.2-5.7-54.9,0-83.5,45.7-83.5,101.8,0,67.6,36.6,112.2,88.1,112.2,33.2,0,52.6-16,71-54.9Z" fill="#7ad2da"/><path d="M1638.9,771.4V758.8c22.8-3.4,24-6.8,19.4-21.7-4.6-12.6-10.3-28.6-16-47h-73.2c-4.6,12.6-10.3,27.5-13.8,38.9-8,22.9,0,26.4,28.7,28.7v12.5h-87V757.7c22.9-3.5,28.6-5.7,41.2-36.7l75.6-188.8,14.8-3.4c22.9,62.9,48.1,128.2,71,189.9,12.6,33.3,16,35.5,40.1,39v12.5H1639v1.2Zm-33.2-179.7c-11.5,27.5-21.8,54.9-32.1,82.4h60.7Z" fill="#7ad2da"/><path d="M1977.6,773.7h-11.5c-38.9-2.3-52.6-10.3-65.2-28.7s-25.2-42.3-37.7-62.9c-5.7-10.3-11.5-12.6-25.2-12.6h-9.1v53.8c0,29.8,3.4,32.1,32,35.5v12.6H1754.5V758.8c28.6-3.4,30.8-5.7,30.8-35.5V582.6c0-29.8-3.4-32.1-30.8-35.5V535.6h100.7c29.7,0,48,3.5,62.9,13.8s24,25.1,24,48c0,32.1-20.6,50.4-45.8,59.5,5.7,11.5,20.6,34.3,30.9,51.5,12.6,19.4,20.6,29.8,27.5,37.7,9.1,10.3,14.9,12.6,24,16Zm-137.3-118c17.2,0,28.6-2.2,36.7-10.3,12.5-10.2,18.3-24,18.3-43.5,0-38.9-22.9-52.6-46.9-52.6-10.3,0-14.9,1.2-17.2,3.4s-3.4,6.9-3.4,14.9v87l12.5,1.1Z" fill="#7ad2da"/><path d="M1992.5,771.4V758.8c28.6-2.2,30.9-4.6,30.9-35.5V583.7c0-30.8-3.5-33.2-30.9-35.4V535.7h106.4v12.6c-28.6,2.2-32,4.6-32,35.4V723.3c0,30.9,3.4,32.1,32,35.5v12.6Z" fill="#7ad2da"/><path d="M2264.9,771.4V758.8c22.9-3.4,24-6.8,19.4-21.7-4.6-12.6-10.3-28.6-16-47h-73.2c-4.6,12.6-10.3,27.5-13.7,38.9-8.1,22.9,0,26.4,28.6,28.7v12.5h-87V757.7c22.8-3.5,28.6-5.7,41.1-36.7l75.6-188.8,14.9-3.4c22.9,62.9,48.1,128.2,71,189.9,12.5,33.3,16,35.5,40.1,39v12.5H2265v1.2Zm-33.2-179.7c-11.5,27.5-21.8,54.9-32.1,82.4h60.7Z" fill="#7ad2da"/><path d="M1274.9,1062.1c-2.3,9.1-11.5,50.3-14.9,60.6H1075.7v-12.5c33.2-3.5,35.5-5.7,35.5-35.5V935.1c0-30.9-4.6-33.2-29.8-35.5V887H1197c36.7,0,50.4,0,54.9-1.1,0,6.8,2.3,36.6,3.5,57.2l-12.6,2.3c-3.4-12.6-8-25.2-13.7-32.1-5.7-9.1-12.6-11.4-32.1-11.4h-27.4c-12.6,0-13.8,1.1-13.8,12.5v77.9h36.7c22.8,0,25.2-5.7,30.9-30.9h12.5v79h-12.5c-5.7-26.4-8.1-30.9-30.9-30.9h-36.7v65.2c0,25.2,3.5,30.9,24.1,30.9h28.6c20.6,0,25.2-2.3,33.2-12.6s16-22.8,21.7-35.5Z" fill="#7ad2da"/><path d="M1435.2,945.3c-6.9-22.8-17.2-49.2-50.4-49.2-24,0-36.7,17.2-36.7,36.7,0,21.7,14.9,34.3,45.8,49.2,35.5,17.1,63,35.5,63,73.2,0,41.2-34.4,72.1-84.7,72.1-21.8,0-42.4-5.7-59.5-11.4-2.3-9.2-8.1-43.5-10.3-60.7l12.5-3.4c6.9,22.8,25.2,60.6,61.8,60.6,24,0,37.7-14.9,37.7-38.9s-14.8-35.5-44.6-51.5c-33.2-17.1-61.7-35.4-61.7-74.4s28.6-66.3,80.1-66.3c24,0,43.5,5.7,51.4,6.8,1.2,13.8,3.5,30.9,6.9,53.9Z" fill="#7ad2da"/><path d="M1682.3,947.6c-3.4-14.9-10.3-28.6-13.7-33.2-5.7-8.1-9.1-11.5-29.8-11.5h-27.4v172.8c0,29.8,3.5,32.1,36.7,35.5v12.6H1532.4v-12.6c32.1-2.3,35.5-4.6,35.5-35.5V903h-26.3c-20.6,0-26.4,3.4-32.1,12.5-4.6,6.9-9.1,18.4-13.7,33.2h-12.6c2.3-25.1,4.6-51.4,5.7-69.8h10.3c5.7,8.1,9.1,9.2,20.6,9.2H1664c10.3,0,13.7-2.3,20.6-9.2h10.3c0,16,1.2,45.8,3.4,68.7Z" fill="#7ad2da"/><path d="M1823.1,1122.7v-12.5c22.9-3.5,24-6.9,19.4-21.8-4.6-12.5-10.3-28.6-16-46.9h-73.2c-4.6,12.5-10.3,27.4-13.7,38.9-8.1,22.8,0,26.3,28.6,28.6v12.6h-87V1109c22.9-3.4,28.6-5.7,41.2-36.6L1798,883.5l14.9-3.4c22.8,63,48,128.2,70.9,190,12.6,33.2,16,35.5,40.1,38.9v12.6H1823.2v1.1Zm-34.3-180.8c-11.5,27.4-21.8,54.9-32.1,82.4h60.7Z" fill="#7ad2da"/><path d="M2103.5,947.6c-3.4-14.9-10.3-28.6-13.7-33.2-5.7-8.1-9.1-11.5-29.8-11.5h-27.4v172.8c0,29.8,3.4,32.1,36.6,35.5v12.6H1953.6v-12.6c32.1-2.3,35.5-4.6,35.5-35.5V903h-26.3c-20.6,0-26.4,3.4-32.1,12.5-4.6,6.9-9.1,18.4-13.7,33.2h-12.6c2.3-25.1,4.6-51.4,5.7-69.8h10.3c5.7,8.1,9.2,9.2,20.6,9.2h144.2c10.3,0,13.7-2.3,20.6-9.2h10.3c0,16,1.2,45.8,3.4,68.7Z" fill="#7ad2da"/><path d="M2341.6,1062.1c-2.3,9.1-11.5,50.3-14.9,60.6H2142.4v-12.5c33.2-3.5,35.5-5.7,35.5-35.5V935.1c0-30.9-4.6-33.2-29.8-35.5V887h115.6c36.6,0,50.3,0,54.9-1.1,0,6.8,2.2,36.6,3.4,57.2l-12.5,2.3c-3.5-12.6-8.1-25.2-13.8-32.1-5.7-9.1-12.5-11.4-32-11.4h-28.6c-12.6,0-13.8,1.1-13.8,12.5v77.9H2258c22.8,0,25.2-5.7,30.9-30.9h12.5v79h-12.5c-5.7-26.4-8.1-30.9-30.9-30.9h-36.6v65.2c0,25.2,3.4,30.9,24,30.9H2274c20.6,0,25.2-2.3,33.3-12.6s15.9-22.8,21.7-35.5Z" fill="#7ad2da"/><path d="M2500.7,945.3c-6.9-22.8-17.2-49.2-50.4-49.2-24,0-36.7,17.2-36.7,36.7,0,21.7,14.9,34.3,45.8,49.2,35.5,17.1,63,35.5,63,73.2,0,41.2-34.4,72.1-84.7,72.1-21.8,0-42.4-5.7-59.5-11.4-2.3-9.2-8.1-43.5-10.3-60.7l12.5-3.4c6.9,22.8,25.2,60.6,61.8,60.6,24,0,37.7-14.9,37.7-38.9s-14.8-35.5-44.6-51.5c-33.2-17.1-61.7-35.4-61.7-74.4s28.6-66.3,80.1-66.3c24,0,43.5,5.7,51.4,6.8,1.2,13.8,3.5,30.9,6.9,53.9Z" fill="#7ad2da"/></g></g></svg>